<svg xmlns="http://www.w3.org/2000/svg" viewBox="0 0 375.33 52.06"><title>nekonata</title><g id="Layer_2" data-name="Layer 2"><g id="Layer_1-2" data-name="Layer 1"><path d="M39.1,61q-3-8.51-6.74-17a165.77,165.77,0,0,0-8-16.06L16.42,61H5.4l12-49.9h8.57q1.65,2.52,3.56,5.94c1.28,2.28,2.58,4.74,3.93,7.38s2.69,5.39,4,8.25,2.62,5.67,3.82,8.46l7.12-30H59.54L47.52,61Z" transform="translate(-5.4 -9.9)"/><path d="M58.82,61l12-49.9h32.61l-2.3,9.22H79.7L77.4,30.35H96.26L94,39.42H75.17L72.29,51.66h23L93,61Z" transform="translate(-5.4 -9.9)"/><path d="M131,61c-.68-1.63-1.48-3.39-2.42-5.26s-2-3.74-3.09-5.61a61.4,61.4,0,0,0-3.64-5.4,41.1,41.1,0,0,0-4-4.61L112.75,61H101.59l12-49.9h11.23l-4.39,18Q126,24.24,131,19.8t9.28-8.75h13.32l-13,12.13q-6.45,6-13.57,11.7a90.12,90.12,0,0,1,8.71,11.38A84.34,84.34,0,0,1,143.21,61Z" transform="translate(-5.4 -9.9)"/><path d="M168.41,62a21.94,21.94,0,0,1-8.07-1.44A17.94,17.94,0,0,1,154,56.38a18.59,18.59,0,0,1-4.14-6.59A24.48,24.48,0,0,1,148.39,41a33.71,33.71,0,0,1,1.94-11.16,32.75,32.75,0,0,1,5.58-10,28.75,28.75,0,0,1,8.9-7.2A25,25,0,0,1,176.69,9.9a21.92,21.92,0,0,1,8.06,1.44,18.07,18.07,0,0,1,6.34,4.14,18.87,18.87,0,0,1,4.14,6.59,24.68,24.68,0,0,1,1.47,8.78,34.2,34.2,0,0,1-1.91,11.2,32,32,0,0,1-5.54,10,28.18,28.18,0,0,1-8.89,7.16A25.57,25.57,0,0,1,168.41,62Zm7.12-42.41a11.56,11.56,0,0,0-6.15,1.73,17.32,17.32,0,0,0-5,4.6,22.39,22.39,0,0,0-3.31,6.63,25.33,25.33,0,0,0-1.19,7.7A15.33,15.33,0,0,0,162.18,49q2.26,3.34,7.38,3.35a11.62,11.62,0,0,0,6.15-1.73,17.22,17.22,0,0,0,5-4.61A22.4,22.4,0,0,0,184,39.38a25,25,0,0,0,1.19-7.74,15.22,15.22,0,0,0-2.27-8.74C181.4,20.66,178.94,19.55,175.53,19.55Z" transform="translate(-5.4 -9.9)"/><path d="M233.13,61q-3-8.51-6.73-17a165.81,165.81,0,0,0-8-16.06L210.45,61h-11l11.95-49.9H220q1.65,2.52,3.56,5.94t3.93,7.38q2,4,4,8.25t3.81,8.46l7.13-30h11.16l-12,49.9Z" transform="translate(-5.4 -9.9)"/><path d="M285.76,61c-.09-1.87-.2-3.71-.32-5.51s-.25-3.59-.4-5.36H266.32c-1,1.77-2,3.56-3,5.36s-2.06,3.64-3,5.51H248.54q4.68-8.07,8.75-14.91t7.85-12.88q3.78-6.06,7.38-11.49t7.34-10.62h10q1.15,5.19,2.19,11.49T294,35.42q.9,6.6,1.65,13.18T297.07,61ZM282.45,22q-3,4.82-5.94,9.57t-5.65,9.72h13.46q-.36-4.4-.75-9.36T282.45,22Z" transform="translate(-5.4 -9.9)"/><path d="M347,11.05l-2.31,9.43H330.12L320.4,61H309.16l9.72-40.47H304.27l2.3-9.43Z" transform="translate(-5.4 -9.9)"/><path d="M369.43,61c-.1-1.87-.21-3.71-.33-5.51s-.25-3.59-.39-5.36H350q-1.44,2.66-3,5.36t-3,5.51H332.2Q336.88,52.88,341,46t7.85-12.88q3.78-6.06,7.38-11.49t7.34-10.62h10q1.16,5.19,2.2,11.49t1.94,12.88q.9,6.6,1.66,13.18T380.73,61ZM366.12,22q-3,4.82-5.94,9.57t-5.66,9.72H368q-.36-4.4-.76-9.36T366.12,22Z" transform="translate(-5.4 -9.9)"/></g></g></svg>