<svg xmlns="http://www.w3.org/2000/svg" viewBox="0 0 385.13 59.33"><title>nekonata</title><g id="Layer_2" data-name="Layer 2"><g id="Layer_1-2" data-name="Layer 1"><path d="M59.84,16.45C53.57,28.62,47.31,45.32,44.5,58.35l-12.6,3.1A99.68,99.68,0,0,1,20.81,31.14,170.1,170.1,0,0,0,13,59.87L0,63A228.17,228.17,0,0,1,9.07,27.68H12l4.9-11.59a61.78,61.78,0,0,1,12.89-3.75c.57,10.73,3.31,22.32,7.78,31a265.6,265.6,0,0,1,9.64-31.9Z" transform="translate(0 -10.83)"/><path d="M79.92,24.08c-1.29,3-2.81,6.41-3.82,9.14C83,32.14,90.94,31,97.71,30.49L90.58,41.07l-13,.58-2.88-4.18c-.8,2.45-2.52,6.84-2.52,9.44,0,3.09,2.16,4.17,5.4,4.17,4.82,0,12-2.45,18.14-4.25l-1.44,9.94a38.36,38.36,0,0,1-19,5.26C64.8,62,59.11,56.41,59.11,48.2c0-5.9,4.54-16.63,7-21.89l-5.19-8.49c8.71-1.66,16.2-2.45,22.9-3.24l1.15-2c5.83-.51,12.6-.72,18.58-.72a92.1,92.1,0,0,1,1.73,11.23C97.71,23.07,87.27,23.5,79.92,24.08Z" transform="translate(0 -10.83)"/><path d="M159.34,17.17c-8.93,5.47-20.67,13.32-27.87,18.57,5.62,9.22,13.47,20.38,22.9,28.09l-13.9,6.33c-8.71-8.49-15.26-21-20.09-32.54-2.52,7.56-5.11,16.2-7.48,24.34l-12.68-.87c4.47-16.34,9.8-34.2,14-47a92.43,92.43,0,0,1,15.13-2.38c-2.24,6.13-4.54,12.61-6.85,19.59,3.53-2.81,7.93-6.05,11.6-8.5L133.2,20c4.11-3.17,9.07-6.56,13.11-9.15Z" transform="translate(0 -10.83)"/><path d="M197.5,37l2.23,2.81C194.12,53,184.32,62,171,62c-12.24,0-18.86-9-18.86-19.23,0-16.27,13-31,29.73-31,11.24,0,17.93,6.56,17.93,15.63A23.34,23.34,0,0,1,197.5,37ZM181.08,23.43c-8.06,0-13.1,5.62-16.49,15.48l2.45.87a13.42,13.42,0,0,0-.65,4c0,3.24,1.59,5.83,5.84,5.83,9.14,0,15.19-9.94,15.19-18.29C187.42,27.18,185.69,23.43,181.08,23.43Z" transform="translate(0 -10.83)"/><path d="M260.35,16.45c-6.26,12.17-12.52,28.87-15.33,41.9l-12.6,3.1a99.68,99.68,0,0,1-11.09-30.31,170.1,170.1,0,0,0-7.78,28.73l-13,3.17a228.17,228.17,0,0,1,9.07-35.36h2.88l4.9-11.59a61.78,61.78,0,0,1,12.89-3.75c.57,10.73,3.31,22.32,7.77,31a265.74,265.74,0,0,1,9.65-31.9Z" transform="translate(0 -10.83)"/><path d="M288.07,63a80.35,80.35,0,0,1-2.52-16.7c-12.38,1.37-19.22,7.05-22.75,16.56l-11.09-7a121.66,121.66,0,0,1,9.22-12.6l-1.52-2.52c6.92-9.57,16.64-17.78,25.35-24.12l-.14-4.25,13.75-1c1.44,12.39-.65,38.74,3.67,44.86Zm-2.81-29.81c0-2.3,0-4.61.08-6.77a93.46,93.46,0,0,0-12.89,14.55c3.38-.29,9.29-.72,12.89-.79C285.26,37.83,285.26,35.46,285.26,33.15Z" transform="translate(0 -10.83)"/><path d="M346.61,23.94c-6.7,0-14.26.43-21.67,1.15l9.21,3.24c-5.33,12.17-10,26.28-10.8,38.52a147.19,147.19,0,0,1-15.19,3c1.29-16,7.56-32.33,13.61-44.42-4.76.57-9.36,1.29-13.61,2.08l-7.56-9.79a247.25,247.25,0,0,1,33.26-3.46l1.16-2c3.81-.29,7.84-.43,11.66-.43,1.95,0,3.82,0,5.62.07a92.07,92.07,0,0,1,1.58,12.24C351.65,23.94,349.2,23.94,346.61,23.94Z" transform="translate(0 -10.83)"/><path d="M371.16,63a80.35,80.35,0,0,1-2.52-16.7c-12.39,1.37-19.23,7.05-22.75,16.56l-11.09-7A121.59,121.59,0,0,1,344,43.23l-1.51-2.52c6.91-9.57,16.63-17.78,25.35-24.12l-.15-4.25,13.76-1c1.44,12.39-.65,38.74,3.67,44.86Zm-2.81-29.81c0-2.3,0-4.61.07-6.77a94.51,94.51,0,0,0-12.89,14.55c3.39-.29,9.29-.72,12.89-.79C368.35,37.83,368.35,35.46,368.35,33.15Z" transform="translate(0 -10.83)"/></g></g></svg>